<?xml version="1.0" encoding="UTF-8" standalone="no"?>
<!-- Created with Inkscape (http://www.inkscape.org/) -->

<svg
   xmlns:dc="http://purl.org/dc/elements/1.1/"
   xmlns:cc="http://creativecommons.org/ns#"
   xmlns:rdf="http://www.w3.org/1999/02/22-rdf-syntax-ns#"
   xmlns:svg="http://www.w3.org/2000/svg"
   xmlns="http://www.w3.org/2000/svg"
   xmlns:sodipodi="http://sodipodi.sourceforge.net/DTD/sodipodi-0.dtd"
   xmlns:inkscape="http://www.inkscape.org/namespaces/inkscape"
   width="79.413628mm"
   height="47.155437mm"
   viewBox="0 0 281.38687 167.08619"
   id="svg2"
   version="1.1"
   inkscape:version="0.91 r13725"
   sodipodi:docname="nostatsicon.svg">
  <defs
     id="defs4">
    <clipPath
       clipPathUnits="userSpaceOnUse"
       id="clipPath4206">
      <rect
         style="opacity:1;fill:#808080;fill-opacity:1;stroke:none;stroke-width:15;stroke-linecap:round;stroke-linejoin:round;stroke-miterlimit:4;stroke-dasharray:none;stroke-dashoffset:0;stroke-opacity:1"
         id="rect4208"
         width="194.28572"
         height="248.57143"
         x="452.85715"
         y="-793.35205" />
    </clipPath>
  </defs>
  <sodipodi:namedview
     id="base"
     pagecolor="#ffffff"
     bordercolor="#666666"
     borderopacity="1.0"
     inkscape:pageopacity="0.0"
     inkscape:pageshadow="2"
     inkscape:zoom="1"
     inkscape:cx="-19.979804"
     inkscape:cy="182.23282"
     inkscape:document-units="px"
     inkscape:current-layer="layer1"
     showgrid="false"
     showguides="true"
     inkscape:window-width="1920"
     inkscape:window-height="1017"
     inkscape:window-x="-8"
     inkscape:window-y="-8"
     inkscape:window-maximized="1"
     fit-margin-top="0"
     fit-margin-left="0"
     fit-margin-right="0"
     fit-margin-bottom="0" />
  <metadata
     id="metadata7">
    <rdf:RDF>
      <cc:Work
         rdf:about="">
        <dc:format>image/svg+xml</dc:format>
        <dc:type
           rdf:resource="http://purl.org/dc/dcmitype/StillImage" />
        <dc:title></dc:title>
      </cc:Work>
    </rdf:RDF>
  </metadata>
  <g
     inkscape:label="Layer 1"
     inkscape:groupmode="layer"
     id="layer1"
     transform="translate(-2475.8087,1294.1834)">
    <path
       inkscape:connector-curvature="0"
       id="path4278"
       d="m 2617.77,-1294.1834 a 83.28604,83.28604 0 0 0 -60.1045,25.6785 l -14.0873,-0.1139 a 12.817147,12.817147 0 1 0 -0.2102,25.6317 l 11.4007,0.094 a 12.817147,12.817147 0 0 1 -4.0917,24.961 l -12.2886,0.1001 -21.4931,-0.1736 a 12.817147,12.817147 0 1 0 -0.2071,25.6319 l 20.0016,0.1634 a 83.28604,83.28604 0 0 0 81.0802,64.5999 83.28604,83.28604 0 0 0 61.8466,-27.7477 l 20.2684,-0.1634 a 12.817147,12.817147 0 1 0 -0.2103,-25.6317 l -18.4961,0.1503 a 12.817147,12.817147 0 0 1 1.415,-24.764 l 43.2869,-0.3505 a 12.817147,12.817147 0 1 0 -0.207,-25.6318 l -27.3204,0.2204 a 83.28604,83.28604 0 0 0 -80.5831,-62.6542 z m -128.9029,25.5649 a 12.817147,12.817147 0 1 0 -0.1503,25.6317 l 15.4858,0.09 a 12.817147,12.817147 0 1 0 0.1503,-25.6316 l -15.4858,-0.09 z m 255.2661,87.4651 -15.4826,0.09 a 12.817147,12.817147 0 1 0 0.1472,25.6317 l 15.4858,-0.09 a 12.817147,12.817147 0 1 0 -0.1503,-25.6316 z"
       style="color:#000000;font-style:normal;font-variant:normal;font-weight:normal;font-stretch:normal;font-size:medium;line-height:normal;font-family:sans-serif;text-indent:0;text-align:start;text-decoration:none;text-decoration-line:none;text-decoration-style:solid;text-decoration-color:#000000;letter-spacing:normal;word-spacing:normal;text-transform:none;direction:ltr;block-progression:tb;writing-mode:lr-tb;baseline-shift:baseline;text-anchor:start;white-space:normal;clip-rule:nonzero;display:inline;overflow:visible;visibility:visible;opacity:1;isolation:auto;mix-blend-mode:normal;color-interpolation:sRGB;color-interpolation-filters:linearRGB;solid-color:#000000;solid-opacity:1;fill:#f2f7fc;fill-opacity:1;fill-rule:evenodd;stroke:none;stroke-width:15;stroke-linecap:round;stroke-linejoin:miter;stroke-miterlimit:4;stroke-dasharray:none;stroke-dashoffset:0;stroke-opacity:1;color-rendering:auto;image-rendering:auto;shape-rendering:auto;text-rendering:auto;enable-background:accumulate" />
    <path
       inkscape:connector-curvature="0"
       id="path4280"
       d="m 2645.2866,-1239.8084 -3.1415,3.0304 c 6.665,6.6038 11.1638,15.2836 12.5786,24.8617 l 4.4302,-0.055 c -1.4536,-10.7178 -6.4335,-20.4511 -13.8673,-27.8365 z"
       style="color:#000000;font-style:normal;font-variant:normal;font-weight:normal;font-stretch:normal;font-size:medium;line-height:normal;font-family:sans-serif;text-indent:0;text-align:start;text-decoration:none;text-decoration-line:none;text-decoration-style:solid;text-decoration-color:#000000;letter-spacing:normal;word-spacing:normal;text-transform:none;direction:ltr;block-progression:tb;writing-mode:lr-tb;baseline-shift:baseline;text-anchor:start;white-space:normal;clip-rule:nonzero;display:inline;overflow:visible;visibility:visible;opacity:1;isolation:auto;mix-blend-mode:normal;color-interpolation:sRGB;color-interpolation-filters:linearRGB;solid-color:#000000;solid-opacity:1;fill:#9aa0ad;fill-opacity:1;fill-rule:nonzero;stroke:none;stroke-width:13.63553715;stroke-linecap:round;stroke-linejoin:round;stroke-miterlimit:4;stroke-dasharray:none;stroke-dashoffset:0;stroke-opacity:1;color-rendering:auto;image-rendering:auto;shape-rendering:auto;text-rendering:auto;enable-background:accumulate" />
    <path
       style="opacity:1;fill:none;fill-opacity:1;stroke:#9aa0ad;stroke-width:3.90467811;stroke-linecap:round;stroke-linejoin:round;stroke-miterlimit:4;stroke-dasharray:none;stroke-dashoffset:0;stroke-opacity:1"
       id="path4282"
       sodipodi:type="arc"
       sodipodi:cx="2616.0229"
       sodipodi:cy="-1210.2939"
       sodipodi:rx="50.865276"
       sodipodi:ry="50.865276"
       sodipodi:start="1.0878945"
       sodipodi:end="5.493267"
       d="m 2639.6423,-1165.2451 a 50.865276,50.865276 0 0 1 -66.0196,-16.9509 50.865276,50.865276 0 0 1 10.1177,-67.4058 50.865276,50.865276 0 0 1 68.0868,3.1785 l -35.8043,36.1294 z" />
    <path
       d="m 2676.5803,-1204.6884 a 48.504238,48.504238 0 0 1 -26.5097,44.2395 l -21.9842,-43.236 z"
       sodipodi:end="1.1003979"
       sodipodi:start="6.2624965"
       sodipodi:ry="48.504238"
       sodipodi:rx="48.504238"
       sodipodi:cy="-1203.6849"
       sodipodi:cx="2628.0864"
       sodipodi:type="arc"
       id="path4284"
       style="opacity:1;fill:none;fill-opacity:1;stroke:#9aa0ad;stroke-width:3.90467811;stroke-linecap:round;stroke-linejoin:round;stroke-miterlimit:4;stroke-dasharray:none;stroke-dashoffset:0;stroke-opacity:1" />
    <text
       sodipodi:linespacing="54.000002%"
       id="text4286"
       y="-1179.1089"
       x="2647.1594"
       style="font-style:normal;font-weight:normal;font-size:22.29120827px;line-height:54.00000215%;font-family:sans-serif;letter-spacing:0px;word-spacing:0px;fill:#9aa0ad;fill-opacity:1;stroke:none;stroke-width:1px;stroke-linecap:butt;stroke-linejoin:miter;stroke-opacity:1"
       xml:space="preserve"><tspan
         style="font-style:normal;font-variant:normal;font-weight:normal;font-stretch:normal;font-family:Dosis;-inkscape-font-specification:Dosis;fill:#9aa0ad;fill-opacity:1"
         y="-1179.1089"
         x="2647.1594"
         id="tspan4288"
         sodipodi:role="line">%</tspan></text>
    <path
       style="opacity:1;fill:none;fill-opacity:1;stroke:#9aa0ad;stroke-width:3.90467811;stroke-linecap:round;stroke-linejoin:round;stroke-miterlimit:4;stroke-dasharray:none;stroke-dashoffset:0;stroke-opacity:1"
       id="path4290"
       sodipodi:type="arc"
       sodipodi:cx="2616.0229"
       sodipodi:cy="-1210.2939"
       sodipodi:rx="50.865276"
       sodipodi:ry="50.865276"
       sodipodi:start="1.0878945"
       sodipodi:end="6.2614098"
       d="m 2639.6423,-1165.2451 a 50.865276,50.865276 0 0 1 -60.4771,-9.9949 50.865276,50.865276 0 0 1 -6.9503,-60.9022 50.865276,50.865276 0 0 1 56.6702,-23.364 50.865276,50.865276 0 0 1 37.9911,48.1047 l -50.8533,1.1076 z" />
    <path
       inkscape:connector-curvature="0"
       id="path4292"
       d="m 2636.5846,-1231.4143 -2.8194,2.7194 c 4.7453,4.646 8.2829,10.4566 10.2134,16.9147 l 4.0855,-0.052 c -2.0362,-7.4867 -6.0352,-14.2319 -11.4795,-19.5821 z"
       style="color:#000000;font-style:normal;font-variant:normal;font-weight:normal;font-stretch:normal;font-size:medium;line-height:normal;font-family:sans-serif;text-indent:0;text-align:start;text-decoration:none;text-decoration-line:none;text-decoration-style:solid;text-decoration-color:#000000;letter-spacing:normal;word-spacing:normal;text-transform:none;direction:ltr;block-progression:tb;writing-mode:lr-tb;baseline-shift:baseline;text-anchor:start;white-space:normal;clip-rule:nonzero;display:inline;overflow:visible;visibility:visible;opacity:1;isolation:auto;mix-blend-mode:normal;color-interpolation:sRGB;color-interpolation-filters:linearRGB;solid-color:#000000;solid-opacity:1;fill:#9aa0ad;fill-opacity:1;fill-rule:nonzero;stroke:none;stroke-width:12.22559261;stroke-linecap:round;stroke-linejoin:round;stroke-miterlimit:4;stroke-dasharray:none;stroke-dashoffset:0;stroke-opacity:1;color-rendering:auto;image-rendering:auto;shape-rendering:auto;text-rendering:auto;enable-background:accumulate" />
    <path
       inkscape:connector-curvature="0"
       id="path4294"
       d="m 2629.0015,-1224.0997 -2.5307,2.4409 c 2.9804,2.8805 5.4393,6.269 7.2597,10.0083 l 3.8651,-0.048 c -2.0376,-4.6622 -4.9631,-8.8738 -8.5941,-12.4005 z"
       style="color:#000000;font-style:normal;font-variant:normal;font-weight:normal;font-stretch:normal;font-size:medium;line-height:normal;font-family:sans-serif;text-indent:0;text-align:start;text-decoration:none;text-decoration-line:none;text-decoration-style:solid;text-decoration-color:#000000;letter-spacing:normal;word-spacing:normal;text-transform:none;direction:ltr;block-progression:tb;writing-mode:lr-tb;baseline-shift:baseline;text-anchor:start;white-space:normal;clip-rule:nonzero;display:inline;overflow:visible;visibility:visible;opacity:1;isolation:auto;mix-blend-mode:normal;color-interpolation:sRGB;color-interpolation-filters:linearRGB;solid-color:#000000;solid-opacity:1;fill:#9aa0ad;fill-opacity:1;fill-rule:nonzero;stroke:none;stroke-width:10.99757576;stroke-linecap:round;stroke-linejoin:round;stroke-miterlimit:4;stroke-dasharray:none;stroke-dashoffset:0;stroke-opacity:1;color-rendering:auto;image-rendering:auto;shape-rendering:auto;text-rendering:auto;enable-background:accumulate" />
    <path
       style="color:#000000;font-style:normal;font-variant:normal;font-weight:normal;font-stretch:normal;font-size:medium;line-height:normal;font-family:sans-serif;text-indent:0;text-align:start;text-decoration:none;text-decoration-line:none;text-decoration-style:solid;text-decoration-color:#000000;letter-spacing:normal;word-spacing:normal;text-transform:none;direction:ltr;block-progression:tb;writing-mode:lr-tb;baseline-shift:baseline;text-anchor:start;white-space:normal;clip-rule:nonzero;display:inline;overflow:visible;visibility:visible;opacity:1;isolation:auto;mix-blend-mode:normal;color-interpolation:sRGB;color-interpolation-filters:linearRGB;solid-color:#000000;solid-opacity:1;fill:#005ff8;fill-opacity:1;fill-rule:nonzero;stroke:none;stroke-width:3;stroke-linecap:round;stroke-linejoin:round;stroke-miterlimit:4;stroke-dasharray:none;stroke-dashoffset:0;stroke-opacity:1;color-rendering:auto;image-rendering:auto;shape-rendering:auto;text-rendering:auto;enable-background:accumulate"
       d="m 2677.9102,-1267.7403 c -0.2223,0.066 -0.3883,0.1861 -0.5193,0.271 -0.2618,0.1695 -0.466,0.3562 -0.681,0.569 -0.43,0.4253 -0.875,0.9542 -1.317,1.4924 -0.4421,0.5381 -0.8756,1.0833 -1.2217,1.4932 -0.1731,0.2049 -0.3261,0.3767 -0.4306,0.4839 -0.1048,0.1078 -0.2361,0.1526 0,0.038 0.2425,-0.1137 0.1229,-0.041 -0.026,-0.029 -0.1486,0.015 -0.379,0.022 -0.6472,0.024 -0.5366,0 -1.2326,-0.015 -1.929,-0.015 -0.6964,0 -1.3878,0 -1.9895,0.064 -0.3009,0.031 -0.5757,0.066 -0.8733,0.1601 -0.2975,0.094 -0.7906,0.2051 -1.0489,0.9222 -0.2584,0.7173 0.051,1.117 0.2208,1.3788 0.1697,0.2618 0.3565,0.466 0.5691,0.681 0.4254,0.4298 0.9543,0.875 1.4924,1.317 0.5381,0.4421 1.0833,0.8756 1.4933,1.2218 0.2049,0.173 0.3761,0.3245 0.4832,0.4292 0.1078,0.1048 0.1519,0.238 0.038,0 -0.1139,-0.2427 -0.039,-0.1245 -0.027,0.026 0.015,0.1487 0.022,0.3791 0.024,0.6473 0,0.5366 -0.015,1.2323 -0.015,1.9288 0,0.6965 0,1.3879 0.064,1.9896 0.031,0.301 0.066,0.5757 0.1601,0.8732 0.094,0.2976 0.2051,0.7907 0.9224,1.0491 0.7171,0.2583 1.1169,-0.051 1.3786,-0.221 0.2618,-0.1697 0.4642,-0.3572 0.679,-0.57 0.43,-0.4252 0.8771,-0.9533 1.319,-1.4914 0.4421,-0.5383 0.8742,-1.0828 1.2203,-1.4928 0.1732,-0.2049 0.326,-0.3768 0.4308,-0.4839 0.1047,-0.1077 0.2373,-0.153 0,-0.04 -0.2428,0.1139 -0.123,0.041 0.026,0.029 0.1488,-0.015 0.3792,-0.022 0.6474,-0.024 0.5364,0 1.2323,0.015 1.9288,0.015 0.6963,0 1.3878,0 1.9895,-0.064 0.301,-0.03 0.5757,-0.066 0.8732,-0.1601 0.2976,-0.094 0.7907,-0.205 1.0492,-0.9222 0.2583,-0.7172 -0.051,-1.1171 -0.2211,-1.3787 -0.1695,-0.2618 -0.3577,-0.4656 -0.5703,-0.6806 -0.4255,-0.4298 -0.9543,-0.8749 -1.4926,-1.317 -0.538,-0.4421 -1.0819,-0.8761 -1.4918,-1.2222 -0.2049,-0.1731 -0.3781,-0.3254 -0.4852,-0.4301 -0.1077,-0.1048 -0.1517,-0.2365 -0.037,0 0.1139,0.2427 0.04,0.1244 0.027,-0.026 -0.015,-0.1486 -0.02,-0.3797 -0.023,-0.6479 0,-0.5365 0.015,-1.2325 0.015,-1.9289 0,-0.6964 0,-1.3878 -0.064,-1.9895 -0.03,-0.3009 -0.066,-0.5757 -0.1601,-0.8733 -0.094,-0.2975 -0.205,-0.7906 -0.9224,-1.0489 -0.3585,-0.1291 -0.6368,-0.1169 -0.8592,-0.05 z m -0.3573,3.4276 c 0,0.1922 0.017,0.3233 0.015,0.5246 0,0.6703 -0.017,1.367 -0.015,1.961 0,0.2972 0.015,0.5672 0.031,0.8169 0.021,0.2497 0,0.4284 0.1868,0.832 0.1897,0.4034 0.3431,0.4993 0.5223,0.6743 0.1791,0.1752 0.3825,0.3526 0.6096,0.5443 0.454,0.3833 0.9995,0.8165 1.5173,1.242 0.1563,0.129 0.2493,0.2232 0.3964,0.348 -0.1931,0 -0.3254,0.017 -0.5279,0.015 -0.6702,0 -1.3655,-0.018 -1.9597,-0.015 -0.2971,0 -0.5671,0.015 -0.8169,0.031 -0.2496,0.022 -0.4282,0 -0.8318,0.1869 -0.4036,0.1897 -0.4995,0.343 -0.6745,0.5223 -0.175,0.1791 -0.354,0.3831 -0.5457,0.61 -0.3833,0.454 -0.8163,0.9996 -1.2418,1.5175 -0.1275,0.1558 -0.2229,0.2476 -0.3473,0.3944 0,-0.1926 -0.015,-0.3247 -0.015,-0.5264 0,-0.6704 0.018,-1.3656 0.015,-1.9599 0,-0.297 -0.015,-0.5672 -0.03,-0.8169 -0.022,-0.2495 0,-0.4282 -0.1867,-0.8318 -0.1897,-0.4036 -0.343,-0.4993 -0.5223,-0.6745 -0.1792,-0.175 -0.3831,-0.3539 -0.6101,-0.5456 -0.4541,-0.3833 -0.9989,-0.8149 -1.5168,-1.2404 -0.1559,-0.1275 -0.2491,-0.2222 -0.3959,-0.3467 0.1924,0 0.3244,-0.017 0.5259,-0.017 0.6704,0 1.3671,0.017 1.9613,0.015 0.297,0 0.567,-0.015 0.8167,-0.031 0.2497,-0.022 0.4284,0 0.832,-0.1869 0.4034,-0.1897 0.4993,-0.343 0.6743,-0.5223 0.1752,-0.1792 0.3526,-0.3824 0.5443,-0.6095 0.3833,-0.454 0.8164,-0.9995 1.242,-1.5174 0.1275,-0.1556 0.2227,-0.2478 0.3471,-0.3944 z"
       id="path4296"
       inkscape:connector-curvature="0" />
    <path
       style="color:#000000;font-style:normal;font-variant:normal;font-weight:normal;font-stretch:normal;font-size:medium;line-height:normal;font-family:sans-serif;text-indent:0;text-align:start;text-decoration:none;text-decoration-line:none;text-decoration-style:solid;text-decoration-color:#000000;letter-spacing:normal;word-spacing:normal;text-transform:none;direction:ltr;block-progression:tb;writing-mode:lr-tb;baseline-shift:baseline;text-anchor:start;white-space:normal;clip-rule:nonzero;display:inline;overflow:visible;visibility:visible;opacity:1;isolation:auto;mix-blend-mode:normal;color-interpolation:sRGB;color-interpolation-filters:linearRGB;solid-color:#000000;solid-opacity:1;fill:#005ff8;fill-opacity:1;fill-rule:nonzero;stroke:none;stroke-width:2.2813251;stroke-linecap:round;stroke-linejoin:round;stroke-miterlimit:4;stroke-dasharray:none;stroke-dashoffset:0;stroke-opacity:1;color-rendering:auto;image-rendering:auto;shape-rendering:auto;text-rendering:auto;enable-background:accumulate"
       d="m 2558.7085,-1263.312 c -3.7517,0 -6.8302,3.0787 -6.8302,6.8303 0,3.7519 3.0785,6.8304 6.8302,6.8304 3.7517,0 6.8303,-3.0785 6.8303,-6.8304 0,-3.7516 -3.0786,-6.8303 -6.8303,-6.8303 z m 0,3.4627 c 1.8804,0 3.3677,1.4874 3.3677,3.3676 0,1.8805 -1.4873,3.3678 -3.3677,3.3678 -1.8804,0 -3.3677,-1.4873 -3.3677,-3.3678 0,-1.8802 1.4873,-3.3676 3.3677,-3.3676 z"
       id="ellipse4298"
       inkscape:connector-curvature="0" />
    <ellipse
       style="opacity:1;fill:#9aa0ad;fill-opacity:1;stroke:none;stroke-width:2.02784443;stroke-linecap:round;stroke-linejoin:round;stroke-miterlimit:4;stroke-dasharray:none;stroke-dashoffset:0;stroke-opacity:1"
       id="ellipse4300"
       cx="2702.0737"
       cy="-1213.558"
       rx="4.532403"
       ry="4.5324025" />
    <path
       sodipodi:type="star"
       style="opacity:1;fill:#9aa0ad;fill-opacity:1;stroke:none;stroke-width:3;stroke-linecap:round;stroke-linejoin:round;stroke-miterlimit:4;stroke-dasharray:none;stroke-dashoffset:0;stroke-opacity:1"
       id="path4302"
       sodipodi:sides="4"
       sodipodi:cx="1536.442"
       sodipodi:cy="-630.55194"
       sodipodi:r1="10.025478"
       sodipodi:r2="5.8147774"
       sodipodi:arg1="0.7140907"
       sodipodi:arg2="1.4994889"
       inkscape:flatsided="false"
       inkscape:rounded="0.12"
       inkscape:randomized="0"
       d="m 1544.0182,-623.98595 c -0.5661,0.65316 -6.2998,-0.82757 -7.1619,-0.76599 -0.8621,0.0616 -6.3271,2.34222 -6.9803,1.77614 -0.6531,-0.56607 0.8276,-6.29973 0.766,-7.16186 -0.062,-0.86212 -2.3422,-6.32711 -1.7761,-6.98027 0.566,-0.65316 6.2997,0.82757 7.1618,0.76599 0.8622,-0.0616 6.3271,-2.34222 6.9803,-1.77615 0.6532,0.56608 -0.8276,6.29974 -0.766,7.16186 0.062,0.86213 2.3422,6.32712 1.7762,6.98028 z"
       inkscape:transform-center-x="-0.0079275723"
       inkscape:transform-center-y="0.051652111"
       transform="matrix(0.54040069,-0.20855102,0.20855102,0.54040069,1847.7456,-512.55266)" />
    <path
       inkscape:connector-curvature="0"
       style="color:#000000;font-style:normal;font-variant:normal;font-weight:normal;font-stretch:normal;font-size:medium;line-height:normal;font-family:sans-serif;text-indent:0;text-align:start;text-decoration:none;text-decoration-line:none;text-decoration-style:solid;text-decoration-color:#000000;letter-spacing:normal;word-spacing:normal;text-transform:none;direction:ltr;block-progression:tb;writing-mode:lr-tb;baseline-shift:baseline;text-anchor:start;white-space:normal;clip-rule:nonzero;display:inline;overflow:visible;visibility:visible;opacity:1;isolation:auto;mix-blend-mode:normal;color-interpolation:sRGB;color-interpolation-filters:linearRGB;solid-color:#000000;solid-opacity:1;fill:#9aa0ad;fill-opacity:1;fill-rule:evenodd;stroke:none;stroke-width:2.5;stroke-linecap:round;stroke-linejoin:round;stroke-miterlimit:4;stroke-dasharray:none;stroke-dashoffset:0;stroke-opacity:1;color-rendering:auto;image-rendering:auto;shape-rendering:auto;text-rendering:auto;enable-background:accumulate"
       d="m 2616.271,-1293.9533 a 1.897496,1.897496 0 0 0 -1.9477,1.8439 l -0.498,11.7158 a 1.897496,1.897496 0 1 0 3.7916,0.1601 l 0.498,-11.7157 a 1.897496,1.897496 0 0 0 -1.8439,-2.0041 z m -25.4328,9.1249 a 1.897496,1.897496 0 0 0 -1.4231,3.2164 l 8.0341,8.541 a 1.8980386,1.8980386 0 1 0 2.7659,-2.6 l -8.0339,-8.541 a 1.897496,1.897496 0 0 0 -1.343,-0.6164 z m 50.7381,0.5513 a 1.897496,1.897496 0 0 0 -1.337,0.4951 l -8.784,7.7642 a 1.8975277,1.8975277 0 1 0 2.514,2.8429 l 8.784,-7.7641 a 1.897496,1.897496 0 0 0 -1.177,-3.3381 z"
       id="path4304" />
    <path
       style="font-style:normal;font-variant:normal;font-weight:500;font-stretch:normal;font-size:14.09121227px;line-height:54.00000215%;font-family:Dosis;-inkscape-font-specification:'Dosis Medium';letter-spacing:0px;word-spacing:0px;fill:#9aa0ad;fill-opacity:1;stroke:none;stroke-width:1px;stroke-linecap:butt;stroke-linejoin:miter;stroke-opacity:1"
       d="m 2626.7833,-1143.5236 c -0.4919,0 -0.8983,0.2561 -0.8983,0.6195 l 0,6.9934 c -0.4705,-0.834 -1.4327,-1.6245 -2.8015,-1.6245 -2.0961,0 -3.8272,1.86 -3.8272,4.1058 l 0,2.182 c 0,2.1601 1.7544,4.1502 3.765,4.1502 1.3474,0 2.5005,-0.7921 2.9496,-1.669 l 0,0.8568 c 0,0.3209 0.3632,0.6403 0.8124,0.6403 0.5133,0 0.8775,-0.3194 0.8775,-0.6403 l 0,-14.9947 c 0,-0.3634 -0.3642,-0.6195 -0.8775,-0.6195 z m 13.8266,1.3904 c -0.4063,0 -0.8776,0.2559 -0.8776,0.6195 l 0,11.0162 c 0,2.2458 1.2416,3.2284 3.5516,3.2284 l 0.6641,0 c 0.492,0 0.7677,-0.3852 0.7677,-0.7914 0,-0.4064 -0.2757,-0.7708 -0.7677,-0.7708 l -0.6641,0 c -1.3261,0 -1.7757,-0.4471 -1.7757,-1.6662 l 0,-5.52 2.6948,0 c 0.3208,0 0.5366,-0.3183 0.5366,-0.6817 0,-0.3638 -0.2159,-0.7085 -0.5366,-0.7085 l -2.6948,0 0,-4.106 c 0,-0.3636 -0.4491,-0.6195 -0.8983,-0.6195 z m -41.6458,4.598 c -1.4331,0 -2.4362,0.7905 -2.8639,1.6245 l 0,-0.8746 c 0,-0.3637 -0.3875,-0.6224 -0.8152,-0.6224 -0.5133,0 -0.8745,0.2587 -0.8745,0.6224 l 0,8.8759 c 0,0.3209 0.3612,0.6403 0.8745,0.6403 0.4705,0 0.8982,-0.3194 0.8982,-0.6403 l 0,-5.52 c 0,-1.5612 1.1781,-2.5021 2.3331,-2.5021 1.326,0 2.4369,1.2402 2.4369,2.5021 l 0,5.52 c 0,0.4279 0.4497,0.6403 0.8775,0.6403 0.4491,0 0.8982,-0.2124 0.8982,-0.6403 l 0,-5.52 c 0,-2.2458 -1.733,-4.1058 -3.7648,-4.1058 z m 10.0526,0 c -2.3098,0 -4.2154,1.9242 -4.2154,4.1058 l 0,2.182 c 0,2.1816 1.9484,4.1502 4.2154,4.1502 2.2673,0 4.2335,-1.9901 4.2335,-4.1502 l 0,-2.182 c 0,-2.2458 -1.9662,-4.1058 -4.2335,-4.1058 z m 24.2529,0 c -1.4117,0 -3.0385,0.579 -3.0385,1.242 0,0.3849 0.2363,0.8983 0.664,0.8983 0.3851,0 0.8328,-0.6226 2.3301,-0.6226 1.7111,0 2.3539,1.3913 2.3539,2.6533 l 0,0.4477 -1.0287,0 c -2.9729,0 -5.0042,0.5992 -5.0042,2.9734 0,1.9463 1.2834,2.8459 2.8874,2.8459 1.433,0 2.4827,-0.8136 3.2315,-1.669 l 0,0.8568 c 0,0.3637 0.3417,0.6403 0.8122,0.6403 0.5133,0 0.8775,-0.2766 0.8775,-0.6403 l 0,-5.4754 c 0,-2.1389 -1.0909,-4.1504 -4.0852,-4.1504 z m 16.2073,0 c -1.4117,0 -3.0388,0.579 -3.0388,1.242 0,0.3849 0.2364,0.8983 0.6641,0.8983 0.3851,0 0.8359,-0.6226 2.3331,-0.6226 1.7111,0 2.3508,1.3913 2.3508,2.6533 l 0,0.4477 -1.0255,0 c -2.9729,0 -5.0042,0.5992 -5.0042,2.9734 0,1.9463 1.2833,2.8459 2.8874,2.8459 1.4329,0 2.4798,-0.8136 3.2284,-1.669 l 0,0.8568 c 0,0.3637 0.3417,0.6403 0.8122,0.6403 0.5133,0 0.8777,-0.2766 0.8777,-0.6403 l 0,-5.4754 c 0,-2.1389 -1.091,-4.1504 -4.0852,-4.1504 z m -40.4602,1.6037 c 1.369,0 2.4576,1.2402 2.4576,2.5021 l 0,2.182 c 0,1.3047 -1.11,2.5465 -2.4576,2.5465 -1.3473,0 -2.4397,-1.2418 -2.4397,-2.5465 l 0,-2.182 c 0,-1.2619 1.071,-2.5021 2.4397,-2.5021 z m 14.4522,0 c 1.1978,0 2.4161,0.9409 2.4161,2.5021 l 0,2.76 c 0,0.5774 -1.0467,1.9685 -2.4369,1.9685 -1.3047,0 -2.4161,-1.2632 -2.4161,-2.5465 l 0,-2.182 c 0,-1.2619 1.0895,-2.5021 2.4369,-2.5021 z m 11.3602,4.1059 0.75,0 0,1.1148 c 0,0.9838 -1.369,2.1788 -2.5881,2.1788 -0.9411,0 -1.6483,-0.4916 -1.6483,-1.6037 0,-1.5186 1.6685,-1.6899 3.4864,-1.6899 z m 16.2101,0 0.7469,0 0,1.1148 c 0,0.9838 -1.3687,2.1788 -2.5879,2.1788 -0.941,0 -1.6453,-0.4916 -1.6453,-1.6037 0,-1.5186 1.6684,-1.6899 3.4863,-1.6899 z m -71.5284,2.4398 c -0.6416,0 -1.1119,0.5121 -1.1119,1.1325 0,0.5775 0.4703,1.1117 1.1119,1.1117 0.5989,0 1.0908,-0.5342 1.0908,-1.1117 0,-0.6204 -0.4919,-1.1325 -1.0908,-1.1325 z m 3.7589,0 c -0.6416,0 -1.1117,0.5121 -1.1117,1.1325 0,0.5775 0.4701,1.1117 1.1117,1.1117 0.599,0 1.091,-0.5342 1.091,-1.1117 0,-0.6204 -0.492,-1.1325 -1.091,-1.1325 z m 3.762,0 c -0.6417,0 -1.1146,0.5121 -1.1146,1.1325 0,0.5775 0.4729,1.1117 1.1146,1.1117 0.5988,0 1.091,-0.5342 1.091,-1.1117 0,-0.6204 -0.4922,-1.1325 -1.091,-1.1325 z"
       id="path4410"
       inkscape:connector-curvature="0" />
  </g>
</svg>
